<svg xmlns="http://www.w3.org/2000/svg" viewBox="0 0 100 100">
  <!-- White background -->
  <rect width="100" height="100" fill="#FFFFFF" rx="20" />

  <!-- Scheduler icon in violet -->
  <g transform="translate(15, 15) scale(0.7)">
    <path fill="#5B2173" d="M50 0C22.4 0 0 22.4 0 50s22.4 50 50 50 50-22.4 50-50S77.6 0 50 0zm2.6 14.1c1.4 0 2.5 1.1 2.5 2.5S54 19.1 52.6 19.1s-2.5-1.1-2.5-2.5 1.1-2.5 2.5-2.5zM52.6 28c2.5 0 4.5 1.9 4.5 4.3v9.4l8.1 7.4c1.8 1.6 1.7 4.4-0.1 6.2-1.8 1.9-4.7 2-6.5 0.5l-8.9-8.1c-0.1-0.1-0.2-0.2-0.3-0.3-1-0.8-1.5-1.9-1.5-3.2V32.3c0-2.4 2.1-4.3 4.7-4.3zm-22.4 14c1.4 0 2.5 1.2 2.5 2.6s-1.1 2.5-2.5 2.5-2.5-1.1-2.5-2.5 1.1-2.6 2.5-2.6zm45.1 0.1c1.4 0 2.5 1.1 2.5 2.5s-1.1 2.5-2.5 2.5-2.5-1.1-2.5-2.5 1.1-2.5 2.5-2.5zm-22.3 20.9c1.4 0 2.6 1.2 2.6 2.6s-1.2 2.5-2.6 2.5-2.5-1.1-2.5-2.5 1.1-2.6 2.5-2.6z"/>
  </g>
</svg>
